<svg xmlns="http://www.w3.org/2000/svg" viewBox="587 360 1395 547">
  <path fill="#115491" fill-rule="evenodd" d="
    M1137,682 L1136,703 L1132,717 L1122,739 L1111,755 L1092,774 L1070,790 L1045,803 L1021,812 L987,820 L959,823 L927,823 L902,820 L880,815 L860,808 L840,799 L818,784 L819,779 L882,779 L927,775 L958,770 L989,762 L990,767 L987,773 L987,778 L991,780 L1020,786 L1045,787 L1047,785 L1046,755 L1044,753 L1021,755 L1020,750 L1050,732 L1055,733 L1056,742 L1061,743 L1076,734 L1090,720 L1091,714 L1087,708 L1087,704 L1089,702 L1099,704 L1102,701 L1111,680 L1134,679 Z
    M802,662 L800,664 L800,690 L816,702 L830,708 L832,704 L826,664 L823,661 Z
    M969,655 L972,671 L977,683 L985,681 L1001,671 L1004,667 L1003,660 L997,652 L973,652 Z
    M1003,587 L993,592 L985,600 L982,607 L990,615 L1006,624 L1015,617 L1016,609 L1007,589 Z
    M915,576 L912,579 L904,600 L899,619 L897,638 L901,640 L962,642 L964,640 L966,626 L972,609 L968,605 L921,577 Z
    M1430,568 L1458,567 L1477,575 L1484,576 L1489,563 L1495,563 L1495,797 L1492,800 L1484,799 L1467,792 L1457,785 L1439,765 L1409,717 L1372,632 L1372,624 L1395,593 L1413,576 Z
    M1004,552 L1004,559 L1008,576 L1010,578 L1045,579 L1047,577 L1047,553 L1032,549 L1010,549 Z
    M852,543 L834,537 L823,539 L822,535 L818,532 L807,532 L800,538 L784,570 L780,585 L774,619 L774,633 L776,635 L793,636 L796,633 L800,633 L803,637 L825,636 L832,593 L839,573 L854,547 Z
    M987,547 L973,527 L966,528 L939,544 L926,557 L922,565 L941,580 L947,581 L962,565 L976,555 L985,551 Z
    M1063,506 L1060,512 L1058,550 L1061,554 L1082,567 L1094,579 L1098,579 L1117,557 L1118,551 L1109,539 L1090,521 L1077,512 Z
    M1655,496 L1671,512 L1676,523 L1680,542 L1678,574 L1675,588 L1669,600 L1653,618 L1630,629 L1616,632 L1570,632 L1567,629 L1568,504 L1572,493 L1581,487 L1619,486 L1636,488 Z
    M1832,469 L1818,473 L1800,483 L1787,495 L1774,512 L1768,524 L1761,551 L1760,596 L1765,615 L1772,630 L1797,659 L1822,674 L1860,690 L1894,707 L1911,719 L1924,735 L1930,752 L1931,771 L1929,781 L1919,799 L1904,812 L1887,818 L1873,819 L1865,834 L1865,838 L1868,840 L1894,839 L1909,835 L1933,823 L1948,809 L1961,791 L1967,779 L1975,751 L1977,732 L1975,703 L1969,682 L1962,668 L1938,645 L1922,636 L1875,616 L1828,593 L1810,580 L1800,567 L1795,553 L1795,538 L1799,523 L1807,508 L1816,499 L1835,488 L1861,487 L1883,495 L1910,512 L1932,535 L1934,535 L1934,504 L1931,496 L1896,480 L1871,471 L1855,468 Z
    M1058,467 L1059,479 L1061,483 L1089,501 L1123,536 L1125,536 L1128,529 L1124,520 L1117,511 L1090,486 L1062,467 Z
    M945,458 L946,463 L954,471 L977,468 L1001,468 L1032,473 L1036,472 L1035,465 L1031,461 L1012,456 L996,454 L967,454 L948,456 Z
    M592,641 L592,658 L596,675 L604,692 L613,705 L627,719 L648,734 L674,747 L707,759 L721,783 L737,805 L774,842 L804,862 L840,880 L876,892 L916,900 L934,902 L972,902 L1020,895 L1062,881 L1088,869 L1110,856 L1139,835 L1167,841 L1184,847 L1201,849 L1219,849 L1236,844 L1246,838 L1273,809 L1316,725 L1322,726 L1350,815 L1360,831 L1369,840 L1376,844 L1406,845 L1504,839 L1604,839 L1606,837 L1607,825 L1605,823 L1586,822 L1577,818 L1572,813 L1568,804 L1567,657 L1570,654 L1615,654 L1629,656 L1639,662 L1648,671 L1653,682 L1656,696 L1658,766 L1661,792 L1665,807 L1671,819 L1685,834 L1697,840 L1708,843 L1730,843 L1741,840 L1760,830 L1776,815 L1790,790 L1790,783 L1776,772 L1772,773 L1762,783 L1756,785 L1744,785 L1737,781 L1731,770 L1726,704 L1719,681 L1711,671 L1700,663 L1687,656 L1664,649 L1662,647 L1663,642 L1709,629 L1735,613 L1735,606 L1732,599 L1730,586 L1731,554 L1737,530 L1743,517 L1751,507 L1751,502 L1737,487 L1727,480 L1709,473 L1684,469 L1455,468 L1449,476 L1429,489 L1416,504 L1382,562 L1362,599 L1357,599 L1344,573 L1313,493 L1305,484 L1297,481 L1291,481 L1197,506 L1187,507 L1183,503 L1171,477 L1154,454 L1132,432 L1108,413 L1089,401 L1054,384 L1015,372 L994,368 L967,365 L926,365 L896,368 L872,373 L837,384 L822,391 L795,407 L769,427 L747,450 L730,472 L715,496 L699,529 L688,561 L680,598 L677,624 L677,647 L680,660 L687,666 L721,681 L755,691 L764,691 L765,686 L759,643 L760,605 L767,565 L776,540 L782,530 L808,525 L860,520 L942,521 L942,519 L932,515 L891,508 L847,507 L797,510 L796,504 L808,488 L833,464 L843,457 L877,439 L897,431 L946,420 L992,420 L1029,428 L1071,447 L1088,458 L1109,475 L1135,501 L1163,539 L1187,539 L1199,536 L1221,548 L1239,565 L1248,576 L1269,610 L1304,700 L1304,708 L1298,717 L1272,744 L1259,752 L1244,757 L1224,757 L1210,753 L1208,750 L1208,674 L1207,667 L1202,656 L1188,641 L1173,636 L1116,635 L1113,632 L1108,608 L1100,596 L1096,597 L1085,609 L1090,627 L1090,633 L1088,635 L1035,635 L1032,638 L1030,645 L1021,661 L1005,678 L980,695 L954,706 L948,706 L941,695 L933,678 L930,661 L927,656 L898,656 L896,658 L897,674 L902,695 L907,706 L907,712 L905,714 L828,716 L768,709 L743,704 L696,688 L668,672 L650,655 L642,639 L641,625 L650,603 L669,583 L672,577 L679,553 L678,550 L671,551 L655,560 L634,575 L619,589 L603,611 L596,626 Z"/>
</svg>
